<svg fill="none" height="32" width="32" xmlns="http://www.w3.org/2000/svg">
    <defs>
        <linearGradient gradientUnits="userSpaceOnUse" id="alpha__b" x1="4.686" x2="27.315" y1="27.316"
            y2="4.687">
            <stop stop-color="#102054" />
            <stop offset="1" stop-color="#1A45B8" />
        </linearGradient>
        <linearGradient gradientUnits="userSpaceOnUse" id="alpha__c" x1="19.393" x2="19.393" y1="6.275"
            y2="23.469">
            <stop stop-color="#fff" />
            <stop offset="1" stop-color="#fff" stop-opacity=".6" />
        </linearGradient>
        <linearGradient gradientUnits="userSpaceOnUse" id="alpha__d" x1="12.61" x2="12.61" y1="23.349"
            y2="6.475">
            <stop stop-color="#fff" />
            <stop offset="1" stop-color="#fff" stop-opacity=".6" />
        </linearGradient>
        <clipPath id="alpha__a">
            <path d="M0 0h32v32H0z" fill="#fff" />
        </clipPath>
    </defs>
    <g clip-path="url(#alpha__a)">
        <path d="M16 32c8.837 0 16-7.163 16-16S24.837 0 16 0 0 7.163 0 16s7.163 16 16 16Z"
            fill="url(#alpha__b)" />
        <path d="M16 6.325v.01l.003 6.33 1.146 2.864-1.143-.953v3.056l.018.023a21.909 21.909 0 0 0 6.76 5.633L16 6.325Z"
            fill="url(#alpha__c)" />
        <path d="M16 6.325v.01l-.003 6.33-1.146 2.864 1.143-.953v3.056l-.018.023a21.91 21.91 0 0 1-6.76 5.633L16 6.325Z"
            fill="url(#alpha__d)" />
        <path d="M16 21.514a1.54 1.54 0 1 0 0-3.08 1.54 1.54 0 0 0 0 3.08Z" fill="#F5CC02" />
    </g>
</svg>