<svg fill="none" height="32" width="32" xmlns="http://www.w3.org/2000/svg">
    <defs>
        <linearGradient gradientUnits="userSpaceOnUse" id="ava__b" x1="-.043" x2="31.942" y1="15.95"
            y2="15.95">
            <stop stop-color="#2E2D4F" />
            <stop offset=".024" stop-color="#2F2E50" />
            <stop offset="1" stop-color="#544E75" />
        </linearGradient>
        <clipPath id="ava__a">
            <path d="M0 0h32v32H0z" fill="#fff" />
        </clipPath>
    </defs>
    <g clip-path="url(#ava__a)">
        <path d="M15.95 31.95c8.837 0 16-7.163 16-16s-7.163-16-16-16-16 7.163-16 16 7.163 16 16 16Z"
            fill="url(#ava__b)" />
        <path d="M21.531 8.508H9.651a.59.59 0 0 0-.585.585v2.658a.59.59 0 0 0 .585.584h4.013v10.711c0 .32.452 1.462 1.462 1.462h2.498a.59.59 0 0 0 .585-.585V12.335h4.04a.59.59 0 0 0 .585-.584V9.784c.026-.319-.479-1.276-1.303-1.276Z"
            fill="#fff" />
    </g>
</svg>