<svg fill="none" height="32" width="32" xmlns="http://www.w3.org/2000/svg">
    <defs>
        <linearGradient gradientUnits="userSpaceOnUse" id="busd__a" x1="11.013" x2="6.267" y1="13.633"
            y2="18.38">
            <stop stop-color="#F1BB03" />
            <stop offset="1" stop-color="#F2BC03" />
        </linearGradient>
        <linearGradient gradientUnits="userSpaceOnUse" id="busd__b" x1="18.374" x2="9.889" y1="6.27"
            y2="14.755">
            <stop stop-color="#F1BB03" />
            <stop offset="1" stop-color="#F2BC03" />
        </linearGradient>
        <linearGradient gradientUnits="userSpaceOnUse" id="busd__c" x1="22.033" x2="9.891" y1="9.932"
            y2="22.075">
            <stop stop-color="#F1BB03" />
            <stop offset="1" stop-color="#F2BC03" />
        </linearGradient>
        <linearGradient gradientUnits="userSpaceOnUse" id="busd__d" x1="25.727" x2="13.585" y1="13.623"
            y2="25.766">
            <stop stop-color="#F1BB03" />
            <stop offset="1" stop-color="#F2BC03" />
        </linearGradient>
    </defs>
    <path d="M16 32c8.837 0 16-7.163 16-16S24.837 0 16 0 0 7.163 0 16s7.163 16 16 16Z"
        fill="#0C0D13" />
    <path d="M11.013 16.006 8.64 13.633l-2.373 2.373L8.64 18.38l2.373-2.373Z"
        fill="url(#busd__a)" />
    <path d="M18.374 8.643 16 6.27l-6.112 6.112 2.373 2.373 6.112-6.112Z" fill="url(#busd__b)" />
    <path d="M22.033 12.305 19.66 9.932l-9.77 9.77 2.374 2.373 9.769-9.77Z" fill="url(#busd__c)" />
    <path d="m25.727 15.996-2.373-2.373-9.77 9.77 2.374 2.373 9.77-9.77Z" fill="url(#busd__d)" />
</svg>