<svg fill="none" height="32" width="32" xmlns="http://www.w3.org/2000/svg">
    <path d="M16 32c8.8 0 16-7.2 16-16S24.8 0 16 0 0 7.2 0 16s7.2 16 16 16Z" fill="#06E694" />
    <path clip-rule="evenodd" d="M20 16c2.222 0 4-1.778 4-4s-1.778-4-4-4-4 1.778-4 4c0-2.222-1.778-4-4-4s-4 1.778-4 4 1.778 4 4 4c-2.222 0-4 1.778-4 4s1.778 4 4 4 4-1.778 4-4-1.778-4-4-4c2.222 0 4-1.778 4-4 0 2.222 1.778 4 4 4Z"
        fill="#fff"
        fill-rule="evenodd" />
    <path d="M20 24c2.222 0 4-1.778 4-4s-1.778-4-4-4-4 1.778-4 4 1.778 4 4 4Z" fill="#fff" />
</svg>