<svg fill="none" height="32" width="32" xmlns="http://www.w3.org/2000/svg">
    <defs>
        <linearGradient gradientUnits="userSpaceOnUse" id="dydx__b" x1="20.64" x2="13.626" y1="-3.29"
            y2="25.868">
            <stop stop-color="#2C2C3D" />
            <stop offset="1" stop-color="#1A1A27" />
        </linearGradient>
        <linearGradient gradientUnits="userSpaceOnUse" id="dydx__c" x1="10.813" x2="15.885" y1="8.894"
            y2="15.124">
            <stop stop-color="#fff" />
            <stop offset="1" stop-color="#fff" stop-opacity=".55" />
        </linearGradient>
        <linearGradient gradientUnits="userSpaceOnUse" id="dydx__d" x1="21.499" x2="15.279" y1="23.442"
            y2="14.908">
            <stop stop-color="#6966FF" />
            <stop offset="1" stop-color="#6966FF" stop-opacity=".36" />
        </linearGradient>
        <clipPath id="dydx__a">
            <path d="M0 0h32v32H0z" fill="#fff" />
        </clipPath>
    </defs>
    <g clip-path="url(#dydx__a)">
        <path d="M16 32c8.837 0 16-7.163 16-16S24.837 0 16 0 0 7.163 0 16s7.163 16 16 16Z"
            fill="url(#dydx__b)" />
        <path d="M16 .35A15.65 15.65 0 1 1 .35 16 15.668 15.668 0 0 1 16 .35ZM16 0a16 16 0 1 0 0 32 16 16 0 0 0 0-32Z"
            fill="#2D2D3D" />
        <path d="M20.165 7.52 7.869 24.83h3.775l12.36-17.31h-3.84Z" fill="#fff" />
        <path d="m12.037 7.52 3.618 5.1-1.888 2.782-5.584-7.883h3.854Z" fill="url(#dydx__c)" />
        <path d="m20.53 24.83-4.01-5.641 1.887-2.705 5.899 8.347h-3.775Z" fill="url(#dydx__d)" />
    </g>
</svg>