<svg fill="none" height="32" width="32" xmlns="http://www.w3.org/2000/svg">
    <defs>
        <clipPath id="ldo__a">
            <path d="M0 0h32v32H0z" fill="#fff" />
        </clipPath>
    </defs>
    <g clip-path="url(#ldo__a)">
        <path d="M16 32c8.837 0 16-7.163 16-16S24.837 0 16 0 0 7.163 0 16s7.163 16 16 16Z"
            fill="#fff" />
        <path clip-rule="evenodd" d="m16.007 4.688 5.613 8.764-5.613 3.263-5.612-3.263 5.612-8.764Zm-3.894 8.35 3.894-6.082 3.895 6.082-3.895 2.264-3.894-2.264Z"
            fill="#00A3FF"
            fill-rule="evenodd" />
        <path d="m16 18.642-6.512-3.786-.177.278a7.902 7.902 0 0 0 1.076 9.86 7.952 7.952 0 0 0 11.226 0 7.902 7.902 0 0 0 1.076-9.86l-.178-.278L16 18.642Z"
            fill="#00A3FF" />
    </g>
</svg>