<svg fill="none" height="32" width="32" xmlns="http://www.w3.org/2000/svg">
    <defs>
        <linearGradient gradientUnits="userSpaceOnUse" id="mbox__a" x1="4.615" x2="10.307" y1="17.15"
            y2="17.15">
            <stop stop-color="#1B6FF5" />
            <stop offset="1" stop-color="#1B46F5" />
        </linearGradient>
        <linearGradient gradientUnits="userSpaceOnUse" id="mbox__b" x1="15.999" x2="10.369" y1="17.15"
            y2="17.15">
            <stop stop-color="#6CC5FF" />
            <stop offset="1" stop-color="#3B8BFA" />
        </linearGradient>
        <linearGradient gradientUnits="userSpaceOnUse" id="mbox__c" x1="107.048" x2="139.439" y1="173.032"
            y2="173.032">
            <stop stop-color="#1B6FF5" />
            <stop offset="1" stop-color="#1B46F5" />
        </linearGradient>
        <linearGradient gradientUnits="userSpaceOnUse" id="mbox__d" x1="178.111" x2="145.638" y1="173.032"
            y2="173.032">
            <stop stop-color="#6CC5FF" />
            <stop offset="1" stop-color="#3B8BFA" />
        </linearGradient>
        <linearGradient gradientUnits="userSpaceOnUse" id="mbox__e" x1="11.593" x2="20.405" y1="11.577"
            y2="11.577">
            <stop stop-color="#F69B10" />
            <stop offset=".232" stop-color="#F9AE0A" />
            <stop offset=".973" stop-color="#FBB807" />
        </linearGradient>
    </defs>
    <path d="M16 32c8.837 0 16-7.163 16-16S24.837 0 16 0 0 7.163 0 16s7.163 16 16 16Z"
        fill="#fff" />
    <path d="m4.615 21.917 5.692-3.437v-6.097L4.615 15.82v6.097Z" fill="url(#mbox__a)" />
    <path d="m15.999 21.917-5.692-3.437v-6.097l5.692 3.437v6.097Z" fill="url(#mbox__b)" />
    <path d="m15.999 21.917 5.691-3.437v-6.097l-5.691 3.437v6.097Z" fill="url(#mbox__c)" />
    <path d="M27.385 21.917 21.69 18.48v-6.097l5.695 3.437v6.097Z" fill="url(#mbox__d)" />
    <path d="m15.999 8.917-4.406 2.661 4.406 2.66 4.406-2.66-4.406-2.661Z" fill="url(#mbox__e)" />
</svg>