<svg fill="none" height="32" width="32" xmlns="http://www.w3.org/2000/svg">
    <defs>
        <linearGradient gradientUnits="userSpaceOnUse" id="para__a" x1="27.537" x2="4.462" y1="20.463"
            y2="20.463">
            <stop stop-color="#EF18AC" />
            <stop offset="1" stop-color="#FAD972" />
        </linearGradient>
        <linearGradient gradientUnits="userSpaceOnUse" id="para__b" x1="27.538" x2="4.463" y1="12.298"
            y2="12.298">
            <stop stop-color="#5314F1" />
            <stop offset="1" stop-color="#04E2FF" />
        </linearGradient>
    </defs>
    <path d="M16 32c8.837 0 16-7.163 16-16S24.837 0 16 0 0 7.163 0 16s7.163 16 16 16Z"
        fill="#fff" />
    <path clip-rule="evenodd" d="m10.033 15.426-4.776 2.146a1.346 1.346 0 0 0 .005 2.458l11.776 5.237a2.696 2.696 0 0 0 2.211-.009l7.499-3.408a1.346 1.346 0 0 0-.004-2.453L22.03 17.27l-2.78 1.263a2.695 2.695 0 0 1-2.21.01l-7.006-3.116Z"
        fill="url(#para__a)"
        fill-rule="evenodd" />
    <path d="M12.893 6.737a2.695 2.695 0 0 1 2.214.002l11.639 5.254a1.345 1.345 0 0 1 .003 2.452l-7.499 3.409a2.697 2.697 0 0 1-2.21.009L5.263 12.625a1.346 1.346 0 0 1-.005-2.457l7.635-3.431Z"
        fill="url(#para__b)" />
</svg>