<svg fill="none" height="32" width="32" xmlns="http://www.w3.org/2000/svg">
    <defs>
        <linearGradient gradientUnits="userSpaceOnUse" id="pla__a" x1="3.743" x2="28.257" y1="5.715"
            y2="26.285">
            <stop stop-color="#0AE596" />
            <stop offset="1" stop-color="#01C7D4" />
        </linearGradient>
    </defs>
    <path d="M16 32c8.837 0 16-7.163 16-16S24.837 0 16 0 0 7.163 0 16s7.163 16 16 16Z"
        fill="url(#pla__a)" />
    <path d="M25.156 14.856a2.3 2.3 0 0 0-3.167-.747l-8.11 5.014v5.41l10.53-6.51a2.3 2.3 0 0 0 .747-3.167ZM8.513 10.325l.084 13.364a2.3 2.3 0 0 0 2.3 2.286h.015a2.3 2.3 0 0 0 2.286-2.315l-.066-10.45-4.62-2.885Zm14.056 2.635-10.55-6.585a2.3 2.3 0 0 0-2.436 3.903l8.621 5.382 4.364-2.7Z"
        fill="#fff" />
</svg>