<svg fill="none" height="32" width="32" xmlns="http://www.w3.org/2000/svg">
    <defs>
        <linearGradient gradientUnits="userSpaceOnUse" id="rgt__b" x1="0" x2="32" y1="16" y2="16">
            <stop stop-color="#F7F7F7" />
            <stop offset=".5" stop-color="gray" />
            <stop offset=".75" stop-color="#494949" />
            <stop offset=".79" stop-color="#3F3F3F" />
            <stop offset="1" stop-color="#101010" />
        </linearGradient>
        <linearGradient gradientUnits="userSpaceOnUse" id="rgt__c" x1="3.456" x2="28.544" y1="16"
            y2="16">
            <stop stop-color="#101010" />
            <stop offset=".21" stop-color="#3F3F3F" />
            <stop offset=".25" stop-color="#494949" />
            <stop offset=".5" stop-color="gray" />
            <stop offset="1" stop-color="#F7F7F7" />
        </linearGradient>
        <linearGradient gradientUnits="userSpaceOnUse" id="rgt__d" x1="6.432" x2="25.568" y1="16"
            y2="16">
            <stop stop-color="#F7F7F7" />
            <stop offset=".5" stop-color="gray" />
            <stop offset=".75" stop-color="#494949" />
            <stop offset=".79" stop-color="#3F3F3F" />
            <stop offset="1" stop-color="#101010" />
        </linearGradient>
        <clipPath id="rgt__a">
            <path d="M0 0h32v32H0z" fill="#fff" />
        </clipPath>
    </defs>
    <g clip-path="url(#rgt__a)">
        <path d="M16 0a16 16 0 1 0 0 32 16 16 0 0 0 0-32Zm10.5 26.5a14.848 14.848 0 1 1-21-21 14.848 14.848 0 0 1 21 21Z"
            fill="url(#rgt__b)" />
        <path d="M16 3.456a12.544 12.544 0 1 0 0 25.088 12.544 12.544 0 0 0 0-25.088Zm0 23.936A11.392 11.392 0 1 1 27.392 16 11.405 11.405 0 0 1 16 27.392Z"
            fill="url(#rgt__c)" />
        <path d="M16 6.432a9.568 9.568 0 1 0 0 19.136 9.568 9.568 0 0 0 0-19.136Zm0 17.984A8.417 8.417 0 1 1 24.416 16 8.425 8.425 0 0 1 16 24.416Z"
            fill="url(#rgt__d)" />
    </g>
</svg>